<svg xmlns="http://www.w3.org/2000/svg" xmlns:xlink="http://www.w3.org/1999/xlink" version="1.1" id="Capa_1" x="0px" y="0px" viewBox="0 0 240.39 45" style="enable-background:new 0 0 240.39 45;" xml:space="preserve">
<style type="text/css">
	.st0{fill:#3C3C3B;}
</style>
<g>
	<g>
		<g>
			<g>
				<path class="st0" d="M162.54,32c0,2.6,0.45,4.18,1.86,4.52l1.25,0.28v3.22h-10.34V36.8l1.81-0.28c1.36-0.28,1.81-1.92,1.81-4.52      V12.45c0-2.65-0.68-4.29-1.81-4.51l-1.81-0.29V4.43h12.66l7.46,20.28h0.06V12.45c0-2.65-0.68-4.29-1.81-4.51l-1.81-0.29V4.43      h10.85v3.22l-1.75,0.29c-1.19,0.22-1.86,1.86-1.86,4.51v27.58h-6.55l-9.89-27.58h-0.11V32z"/>
			</g>
		</g>
	</g>
	<g>
		<g>
			<g>
				<path class="st0" d="M21.77,21.04c0-5.59-1.81-13.33-6.23-13.33c-3.39,0-4.07,3.11-4.07,6.27v15.03c0,4.46,1.53,7.74,4.86,7.74      c3.39,0,5.43-2.2,5.43-8.48h5.82c0,6.05-3.22,12.09-11.42,12.09c-8.92,0-12.32-7.23-12.32-14.12v-9.38      c0-5.93,4.58-12.83,11.69-12.83c1.65,0,3.11,0.34,4.58,1.07c0.9,0.51,2.04,0.97,2.72,0.97c0.56,0,0.9-0.34,0.9-1.81h3.84v16.78      H21.77z"/>
			</g>
		</g>
	</g>
	<g>
		<g>
			<g>
				<path class="st0" d="M39.67,19.29h9.27v-6.84c0-2.65-0.68-4.29-1.92-4.51l-1.75-0.29V4.43h13.62v3.22l-1.75,0.29      c-1.18,0.22-1.86,1.86-1.86,4.51V32c0,2.6,0.45,4.24,1.86,4.52l1.75,0.28v3.22H45.26V36.8l1.75-0.28      c1.47-0.28,1.92-1.92,1.92-4.52v-7.74h-9.27V32c0,2.6,0.45,4.24,1.86,4.52l1.81,0.28v3.22H29.67V36.8l1.81-0.28      c1.36-0.28,1.81-1.92,1.81-4.52V12.45c0-2.65-0.68-4.29-1.81-4.51l-1.81-0.29V4.43h13.62v3.22l-1.75,0.29      c-1.18,0.22-1.86,1.86-1.86,4.51V19.29z"/>
			</g>
		</g>
	</g>
	<g>
		<g>
			<g>
				<path class="st0" d="M70.96,23.24v9.27c0,2.26,0.85,3.9,3.72,3.9c3.96,0,4.92-2.88,4.92-6.39v-2.77h3.56v12.77h-22.2V36.8      l1.81-0.28c1.35-0.22,1.8-1.92,1.8-4.52V12.45c0-2.65-0.68-4.29-1.8-4.51l-1.81-0.29V4.43h22.2v12.32H79.6v-2.37      c0-4.24-2.26-6.44-4.92-6.44c-2.87,0-3.72,1.35-3.72,3.96v7.34h5.6v4.01H70.96z"/>
			</g>
		</g>
	</g>
	<g>
		<g>
			<g>
				<path class="st0" d="M85.24,4.43h13.67v3.22L97.1,7.93c-1.24,0.17-1.69,1.3-1.24,3.72l3.9,19.44l5.14-19.15      c0.73-2.43,0.22-3.79-1.24-4.01l-1.82-0.29V4.43h10.91v3.22l-1.82,0.29c-1.24,0.22-1.8,2.42-2.82,6.21l-7.06,25.88h-6.1      l-5.54-28.37c-0.4-1.92-1.24-3.56-2.38-3.72l-1.8-0.29V4.43z"/>
			</g>
		</g>
	</g>
	<g>
		<g>
			<g>
				<path class="st0" d="M118.45,12.45c0-2.65-0.68-4.29-1.81-4.51l-1.81-0.29V4.43h13.62v3.22l-1.81,0.29      c-1.13,0.22-1.81,1.86-1.81,4.51V32c0,2.6,0.45,4.24,1.86,4.52l1.81,0.28v3.22h-13.68V36.8l1.81-0.28      c1.36-0.28,1.81-1.92,1.81-4.52V12.45z"/>
			</g>
		</g>
	</g>
	<g>
		<g>
			<g>
				<path class="st0" d="M152.39,40.03h-3c-0.23-0.51-0.62-1.02-1.25-1.02c-0.62,0-1.41,0.39-2.32,0.79      c-0.9,0.4-2.65,0.56-4.46,0.56c-8.48,0-11.87-7.23-11.87-14.12V16.8c0-6.39,4.3-12.77,11.7-12.77c1.63,0,3.16,0.4,4.57,1.07      c0.91,0.4,1.87,0.97,2.72,0.97c0.68,0,0.91-1.08,0.91-1.81h3.84v16.78h-5.82c-0.06-5.59-1.8-13.33-6.21-13.33      c-3.4,0-4.07,3.11-4.07,6.27v15.03c0,3.17,1.53,7.74,5.14,7.74c2.43,0,5.09-0.9,5.09-5.59c0-2.15-0.9-3-2.03-3h-0.9v-4.29H156      v4.29h-1.92c-1.36,0-1.69,1.3-1.69,2.94V40.03z"/>
			</g>
		</g>
	</g>
	<g>
		<g>
			<g>
				<path class="st0" d="M207.23,27.25c0.05,7.12-4.58,13.17-11.69,13.17c-7.07,0-11.81-5.09-11.76-12.77l0.05-10.79      c0-6.67,4.64-12.77,11.7-12.77c7.06,0,11.63,5.71,11.69,12.77V27.25z M191.52,29.06c0,4.13,0.62,7.74,4.02,7.74      c3.33,0,4.01-3.9,4.01-7.74V14.03c0-3.16-0.68-6.27-4.01-6.27c-3.4,0-4.02,3.11-4.02,6.27V29.06z"/>
			</g>
		</g>
	</g>
	<g>
		<g>
			<g>
				<path class="st0" d="M215.51,32.05c0,2.6,0.45,4.18,1.87,4.52l1.24,0.28v3.22h-10.34v-3.22l1.81-0.28      c1.36-0.28,1.81-1.92,1.81-4.52V12.5c0-2.65-0.68-4.29-1.81-4.51l-1.81-0.29V4.48h12.66l7.46,20.28h0.05V12.5      c0-2.65-0.68-4.29-1.81-4.51l-1.81-0.29V4.48h10.84V7.7l-1.74,0.29c-1.19,0.22-1.87,1.86-1.87,4.51v27.58h-6.56l-9.89-27.58      h-0.11V32.05z"/>
			</g>
		</g>
	</g>
</g>
</svg>