<svg xmlns="http://www.w3.org/2000/svg" width="144.573" height="32.545" viewBox="0 0 144.573 32.545">
  <g id="Grupo_1" data-name="Grupo 1" transform="translate(-18.387 -392.37)">
    <path id="Caminho_1" data-name="Caminho 1" d="M18.387,424.2H41.252v3.63H18.387Zm0-13.811H41.252v3.589H18.387Zm0-13.853H41.252v3.63H18.387Z" transform="translate(0 -3.541)"/>
    <path id="Caminho_2" data-name="Caminho 2" d="M208,409.686c-4.673-.418-10.306-2.253-10.306-8.47,0-5.425,5.216-8.846,11.474-8.846,8.3,0,11.808,5.466,12.184,9.1h-4.173c-.709-3.38-3.63-5.549-8.011-5.549-4.881,0-7.844,2.337-7.844,5.341,0,3.046,2.837,4.423,6.676,4.924Zm3.463-3.213c8.762,1.419,11.182,4.089,11.182,8.971,0,4.548-3.714,9.471-12.517,9.471-8.637,0-12.893-5.549-13.394-10.64h4.047c.667,4.13,3.881,7.093,9.472,7.093,6.634,0,8.721-2.921,8.762-5.8.042-3-1.5-4.59-7.552-5.633Z" transform="translate(-151.566 0)"/>
    <path id="Caminho_3" data-name="Caminho 3" d="M405.8,400.167v-3.63h6.134c5.883,0,9.638,3.672,9.638,8.721s-3.964,8.72-9.638,8.72H405.8v-3.63h6.134c3.88,0,6.008-2.086,6.008-5.09s-2.128-5.09-6.008-5.09Zm-3.464,27.663h-3.63V396.537h3.63Z" transform="translate(-323.2 -3.541)"/>
    <path id="Caminho_4" data-name="Caminho 4" d="M600.271,427.83l-7.093-10.723h4.339l7.3,10.723Zm-6.009-31.293c5.884,0,9.639,3.672,9.639,8.721s-3.964,8.72-9.639,8.72h-7.051v-3.63h6.926c3.881,0,5.925-2.253,5.925-5.09,0-2.8-2.044-5.09-5.925-5.09h-6.926v-3.63Zm-14.145,0h3.63V427.83h-3.63Z" transform="translate(-477.366 -3.541)"/>
    <rect id="Retângulo_2" data-name="Retângulo 2" width="3.63" height="31.293" transform="translate(131.751 392.996)"/>
    <path id="Caminho_5" data-name="Caminho 5" d="M836.885,427.83h-3.63V403.547h3.63ZM823.2,396.537h23.7v3.63H823.2Z" transform="translate(-683.938 -3.541)"/>
  </g>
</svg>
