<svg xmlns="http://www.w3.org/2000/svg" width="146.881" height="30.51" viewBox="0 0 146.881 30.51">
  <g id="Grupo_9468" data-name="Grupo 9468" transform="translate(-11385.989 5502)">
    <path id="Trazado_38337" data-name="Trazado 38337" d="M18.01,27.58l7.8,11.24L18.3,38.8,11.28,27.9H8.26L8.24,38.78l-6.18-.01L2.12,8.49l12.6.03c7.04.02,9.73,4.8,9.72,9.71-.01,4.11-2.01,8.25-6.67,9.34ZM8.29,13.67l-.02,9.1,4.77.01c2.94.01,5.36-.71,5.37-4.56.01-3.94-2.42-4.53-5.35-4.54Z" transform="translate(11383.93 -5510.49)" fill="#fff"/>
    <rect id="Rectángulo_10058" data-name="Rectángulo 10058" width="30.23" height="6.14" transform="translate(11423.823 -5471.686) rotate(-89.875)" fill="#fff"/>
    <path id="Trazado_38338" data-name="Trazado 38338" d="M66.12,33.23l-.02,5.63-5.94-.01.06-30.36,20.39.05-.01,5.59L66.16,14.1l-.02,6.81,12.76.03-.01,5.88L66.13,26.8Z" transform="translate(11383.93 -5510.49)" fill="#fff"/>
    <path id="Trazado_38339" data-name="Trazado 38339" d="M92.98,38.71l.07-30.14,6.02.01-.05,24.55,14.32.03-.01,5.59Z" transform="translate(11383.93 -5510.49)" fill="#fff"/>
    <path id="Trazado_38340" data-name="Trazado 38340" d="M133.19,26.94l-.01,6.44,15.76.03L148.93,39l-21.71-.05.06-30.31,20.39.05-.01,5.58-14.44-.03-.02,6.82,12.76.03-.02,5.88Z" transform="translate(11383.93 -5510.49)" fill="#fff"/>
  </g>
</svg>
